<svg width="831" height="554" viewBox="0 0 831 554" fill="none" xmlns="http://www.w3.org/2000/svg">
<path d="M0.654688 31.8L22.6547 0.799981H36.4547C50.0547 0.799981 59.0547 10.2 59.0547 24.2V81H39.4547V25C39.4547 19 36.4547 16 30.6547 15.8H26.6547L20.2547 25.4V217C20.2547 223 23.2547 226 29.2547 226H33.0547L39.4547 216.6V114H59.0547V210L36.8547 241H23.2547C9.65469 241 0.654688 231.6 0.654688 217.8V31.8ZM68.2328 31.6L90.2328 0.799981H104.033C117.433 0.799981 126.433 10.2 126.433 24V210.2L104.433 241H90.6328C77.2328 241 68.2328 231.8 68.2328 218V31.6ZM87.8328 25.2V217C87.8328 223.2 90.8328 226.4 96.8328 226.4H100.633L106.833 216.6V24.8C106.833 18.8 104.033 15.8 98.2328 15.6H94.0328L87.8328 25.2ZM136.211 241V0.799981H159.611L178.411 158.2L197.411 0.799981H220.811V241H201.211V47.4L183.211 241H173.811L155.811 47.4V241H136.211ZM230.742 241V0.799981H266.342C279.142 0.799981 288.942 9.99998 288.942 27.6V160.4L262.342 193H250.142V241H230.742ZM261.142 15.8H250.342L250.142 178H256.942L269.342 166.4V28C269.342 19.2 265.342 15.8 261.142 15.8ZM298.311 0.799981H317.911V217C317.911 223.2 320.911 226.4 326.911 226.4H330.711L337.111 216.8V0.799981H356.711V210.2L334.511 241H320.911C307.311 241 298.311 231.8 298.311 218V0.799981ZM385.889 241V16H364.289V0.99999H426.889V16H405.489V241H385.889ZM423.836 241L438.436 0.99999H468.836L483.236 241H465.836L464.036 209.2H443.036L441.436 241H423.836ZM452.836 17.6L443.636 194.2H463.436L454.436 17.6H452.836ZM501.905 241V16H480.305V0.99999H542.905V16H521.505V241H501.905ZM552.859 241V0.99999H572.459V241H552.859ZM584.053 31.6L606.053 0.799981H619.853C633.253 0.799981 642.253 10.2 642.253 24V210.2L620.253 241H606.453C593.053 241 584.053 231.8 584.053 218V31.6ZM603.653 25.2V217C603.653 223.2 606.653 226.4 612.653 226.4H616.453L622.653 216.6V24.8C622.653 18.8 619.853 15.8 614.053 15.6H609.853L603.653 25.2ZM652.031 241V0.99999H674.231L695.431 161V0.99999H715.031V241H692.831L671.631 40.2V241H652.031ZM721.297 241L735.897 0.99999H766.297L780.697 241H763.297L761.497 209.2H740.497L738.897 241H721.297ZM750.297 17.6L741.097 194.2H760.897L751.897 17.6H750.297ZM786.797 241V0.99999H806.397V223.4H830.797V241H786.797ZM234.746 310.8H262.746C283.146 311 292.946 320 292.946 338V374.4L276.146 551H234.746V310.8ZM254.346 325.6L253.746 536.2H261.546L273.346 373.4V338.2C273.346 329 269.946 325.6 262.146 325.6H254.346ZM302.715 551V311H352.315V326H322.315V379.8H347.515V394.8H322.315V536H352.315V551H302.715ZM359.541 346.6V333.4C359.541 319.8 368.541 310.8 382.141 310.8H419.341L419.141 336.6C419.141 338.4 417.941 339.2 416.341 338.6L388.141 328.2C382.941 327.2 379.141 330.2 379.141 335.6V350.8L418.741 380V529.8C418.741 547 410.341 553.2 401.141 553.2C388.741 553.2 383.341 541.6 380.341 529.8H379.141V551H359.541V382.6C359.541 380.8 360.741 379.6 362.541 379.6H379.141V506.8C379.741 519 381.541 533.8 390.141 533.8C395.141 533.8 399.141 529.6 399.141 518.2V386.4L368.341 363.8C362.741 360.8 359.541 354.4 359.541 346.6ZM431.082 551V311H450.682V551H431.082ZM503.676 548.2L514.876 382H513.276L488.676 551.2H480.076C467.476 551 462.476 544 462.476 531.6L462.276 327.2C462.276 316.8 468.076 311 478.476 311H521.476V336.2C521.476 338 520.276 338.8 518.476 338.2L488.276 326C482.476 324.8 479.076 328.2 479.076 333.6C479.076 340 479.076 505.4 479.076 509C479.076 514.8 480.876 516 485.676 516L502.076 382H483.676C483.676 381.6 483.676 366.4 483.676 366C483.676 364 484.676 363 486.676 363C488.476 363 520.476 363 522.276 363V551C521.876 551 507.876 551 506.076 551C504.076 551 503.476 550.2 503.676 548.2ZM532.012 551V311H554.212L575.412 471V311H595.012V551H572.812L551.612 350.2V551H532.012Z" fill="white"/>
</svg>
